<svg width="24" height="24" viewBox="4 2 24 24" fill="#333" xmlns="http://www.w3.org/2000/svg">
<path fill-rule="evenodd" clip-rule="evenodd" d="M20.7636 8.50004C23.8878 11.6242 23.8878 16.6896 20.7636 19.8137C17.6394 22.9379 12.5741 22.9379 9.44988 19.8137C6.32569 16.6896 6.32569 11.6242 9.44988 8.50004C12.5741 5.37584 17.6394 5.37584 20.7636 8.50004ZM22.85 20.4859C26.0685 16.5579 25.8444 10.7524 22.1778 7.08582C18.2726 3.18058 11.9409 3.18058 8.03567 7.08582C4.13042 10.9911 4.13042 17.3227 8.03567 21.228C11.7023 24.8946 17.5078 25.1186 21.4358 21.9001L25.7134 26.1777L27.1276 24.7635L22.85 20.4859Z"></path>
</svg>