<svg width="24" height="24" viewBox="0 0 24 24" fill="none" xmlns="http://www.w3.org/2000/svg">
<path fill-rule="evenodd" clip-rule="evenodd" d="M16 8C16 10.2091 14.2091 12 12 12C9.79086 12 8 10.2091 8 8C8 5.79086 9.79086 4 12 4C14.2091 4 16 5.79086 16 8ZM18 8C18 11.3137 15.3137 14 12 14C8.68629 14 6 11.3137 6 8C6 4.68629 8.68629 2 12 2C15.3137 2 18 4.68629 18 8ZM7 15C4.23858 15 2 17.2386 2 20V23H4V20C4 18.3431 5.34315 17 7 17H17C18.6569 17 20 18.3431 20 20V23H22V20C22 17.2386 19.7614 15 17 15H7Z"></path>
</svg>

